<svg xmlns="http://www.w3.org/2000/svg" version="1.1" xmlns:xlink="http://www.w3.org/1999/xlink"
 xmlns:svgjs="http://svgjs.dev/svgjs" viewBox="0 0 640 800" opacity="0.8">
 <g stroke-width="30" 
 stroke="#f2e8d9" fill="none" stroke-linecap="square"
 ><line x1="112" y1="0" x2="0" y2="112"></line><line x1="224" y1="0" x2="112" y2="112"></line>
 <line x1="336" y1="0" x2="224" y2="112"></line><line x1="336" y1="0" x2="448" y2="112">

 </line><line x1="448" y1="0" x2="560" y2="112"></line><line x1="672" y1="0" x2="560" y2="112"></line><line x1="112" y1="112" x2="0" y2="224"></line><line x1="112" y1="112" x2="224" y2="224"></line><line x1="224" y1="112" x2="336" y2="224"></line><line x1="336" y1="112" x2="448" y2="224"></line><line x1="560" y1="112" x2="448" y2="224"></line><line x1="560" y1="112" x2="672" y2="224"></line><line x1="0" y1="224" x2="112" y2="336"></line><line x1="224" y1="224" x2="112" y2="336"></line><line x1="224" y1="224" x2="336" y2="336"></line><line x1="336" y1="224" x2="448" y2="336"></line><line x1="448" y1="224" x2="560" y2="336"></line><line x1="672" y1="224" x2="560" y2="336"></line><line x1="112" y1="336" x2="0" y2="448"></line><line x1="112" y1="336" x2="224" y2="448"></line><line x1="224" y1="336" x2="336" y2="448"></line><line x1="448" y1="336" x2="336" y2="448"></line><line x1="448" y1="336" x2="560" y2="448"></line><line x1="560" y1="336" x2="672" y2="448"></line><line x1="112" y1="448" x2="0" y2="560"></line><line x1="112" y1="448" x2="224" y2="560"></line><line x1="224" y1="448" x2="336" y2="560"></line><line x1="336" y1="448" x2="448" y2="560"></line><line x1="448" y1="448" x2="560" y2="560"></line><line x1="672" y1="448" x2="560" y2="560"></line><line x1="112" y1="560" x2="0" y2="672"></line><line x1="224" y1="560" x2="112" y2="672"></line><line x1="224" y1="560" x2="336" y2="672"></line><line x1="336" y1="560" x2="448" y2="672"></line><line x1="560" y1="560" x2="448" y2="672"></line><line x1="560" y1="560" x2="672" y2="672"></line><line x1="112" y1="672" x2="0" y2="784"></line><line x1="224" y1="672" x2="112" y2="784"></line><line x1="336" y1="672" x2="224" y2="784"></line><line x1="448" y1="672" x2="336" y2="784"></line><line x1="560" y1="672" x2="448" y2="784"></line><line x1="672" y1="672" x2="560" y2="784"></line><line x1="112" y1="784" x2="0" y2="896"></line><line x1="112" y1="784" x2="224" y2="896"></line><line x1="336" y1="784" x2="224" y2="896"></line><line x1="448" y1="784" x2="336" y2="896"></line><line x1="560" y1="784" x2="448" y2="896"></line><line x1="560" y1="784" x2="672" y2="896"></line></g></svg>